<svg xmlns="http://www.w3.org/2000/svg" class="hh-logo" viewBox="0 0 3334.3 954"><g class="logo-type"><path class="letter" d="M3218.3 410.1c66.2 0 115.9 50.1 115.9 114 0 65.8-49.8 117.2-115.9 117.2-66.2 0-115.9-51.3-115.9-117.2 0-63.9 49.8-114 115.9-114zm0 195c40.3 0 73.4-35 73.4-81 0-44.1-33.1-77.8-73.4-77.8s-73.4 33.7-73.4 77.8c0 46 33.1 81 73.4 81zM2871.9 610.3h26.8V448.7h-26.8v-31.2h98.6c16.4 0 29.9.9 42.5 4.7 24.9 8.2 41.3 28.4 41.3 59.9 0 31.2-16.4 53.2-42.2 62.1v.6s6.6 3.5 11 11.7l25.8 46.6c3.2 5.7 7.6 7.2 15.1 7.2h7.2v30.9h-26.1c-18.6 0-24.3-3.8-31.2-16.7l-31.8-57.6c-4.7-8.5-8.8-11.3-21.7-11.3h-20.5v54.8h25.8v30.9h-93.9v-31zm105.2-87.9c21.7 0 35.9-12.9 35.9-36.9 0-14.5-5.4-25.8-17.6-30.9-6.3-2.8-14.8-4.1-25.2-4.1H2940v71.8h37.1zM2642.8 610.7h26.8V449.1h-26.8v-31.2h166v57.6h-35.3V451h-62.7v61.4h73.7v33.1h-73.7v63h67.4v-25.2h35.3v58.3h-170.7v-30.9zM2251.2 597.3h38.2V366.4h-38.2v-44.5h135.9v44.5h-38.7v92.2h145.3v-92.2H2455v-44.5h135.9v44.5h-38.2v230.8h38.2v44.1H2455v-44.1h38.7v-91.3h-145.3v91.3h38.7v44.1h-135.9v-44zM2014.5 610.5h26.8V448.9h-26.8v-31.2h166v57.6h-35.3v-24.6h-62.7v61.4h73.7v33.1h-73.7v63h67.4V583h35.3v58.3h-170.7v-30.8zM1679.5 610.6h26.5l13.2-161.6h-27.1v-31.2h72.8l49.8 126.3c3.8 11 5.4 18.6 5.4 18.6h.6s1.6-7.6 5.7-18.6l49.5-126.3h72.8V449h-26.8l12.9 161.6h26.5v30.9h-91.7v-30.9h24.9l-8.2-112.8c-.6-7.9.9-20.8.9-20.8h-.9s-2.5 12.3-5.4 19.8l-42.8 103h-35.3l-42.8-103c-2.8-7.6-5-19.8-5-19.8h-1.3s1.6 12.9.9 20.8l-8.2 112.8h25.2v30.9h-92v-30.9zM1534 410.1c66.2 0 115.9 50.1 115.9 114 0 65.8-49.8 117.2-115.9 117.2s-115.9-51.3-115.9-117.2c0-63.9 49.8-114 115.9-114zm0 195c40.3 0 73.4-35 73.4-81 0-44.1-33.1-77.8-73.4-77.8s-73.4 33.7-73.4 77.8c0 46 33.1 81 73.4 81zM1051.9 597.3h38.2V366.4h-38.2v-44.5h135.9v44.5h-38.7v92.2h145.3v-92.2h-38.7v-44.5h135.9v44.5h-38.2v230.8h38.2v44.1h-135.9v-44.1h38.7v-91.3h-145.3v91.3h38.7v44.1h-135.9v-44z"/></g><g class="logo-icon"><path class="circle" d="M477 954C213.6 954 0 740.4 0 477 0 213.5 213.6 0 477 0c263.5 0 477 213.5 477 477 0 263.4-213.6 477-477 477z"/><path class="hh" d="M840.5 521.2c-23.2 17.5-58.9 22.4-95.9 21.7.7-25.3 3.1-49.1 3.5-74.5.8-39.2 12-186.5-28-209.1-11.9-6.7-30 17.2-22.6 24.7 21.6 21.6 19.7 144.2 14.2 257.1-29.1-2.7-61.5-7.2-84.7-13.2 4.8-78.7 7.6-157.6 4.7-236.3-1.5-39.1-6.4-94.3-27-92.1-8.2.9-23.6 4-23.7 13 .8 5.2 1.8 8.4 2.7 11 4.1 12 7.5 33.9 9.2 50.1 5.1 49 3.1 99.1 1.9 148.3-.8 32-2.4 64-4.1 95.9-35.2-11.9-70.9-30.5-98.6-55.3 28.9-33.4 47.6-77.8 38.8-120.6-6.2-29.6-37.1-62.1-74.8-46.6-57.1 23.6-63.5 103-4.5 168-15.6 15.3-33.5 28.5-51.4 40-13.7 8.8-27.7 16-42.2 22.1-.9-27.6-2-55.1-3.4-82.7-2.1-38.1-6.1-178.4-29.6-187.7-8.2-3.3-21.7 3.9-27.1 8-7.2 5.4 4.5 26.7 10.6 75 6.1 49.1 8.5 99 10.6 148.4.7 17.3 1.4 34.6 1.9 52-27.8 7.6-56.6 11.3-85.6 11.5-3.8-71.2-2.9-142.8-17.4-212.3-3-14.3-39 0-37 9.9 13.1 66 13.6 133.4 16.8 200.8-26.7-2.4-53.2-7.2-79.3-14.3-14.3-3.9-43.9 17.1-21.9 23.1 34.3 9.3 68.7 14.9 102.6 16.6 2.2 35.9 5.6 71.8 12.8 107.3 1.9 9.1 38 3.4 37.1-9.9-.3-3.6-8.3-45.2-12.1-97.3 28.8-1.1 57.2-5.1 84.8-12.3 1.4 54.8 2.2 109.7 3.1 164.6-.3 6.9 4.9 10.3 11.6 10.9 10.8 1.3 25.3-4.7 25.8-14.3v-.2c-1-57.6-1.8-115.2-3.4-172.8 39.4-14.8 77-36.4 111.6-65.6.5-.4.9-.9 1.4-1.3 21.6 19 45.4 34.3 66.2 43.2 15 6.5 32.4 12.8 51.2 18.6-3.3 54.7-14.6 176.8-13.5 185.2 1.3 10.4 28 2.9 33.2-2.8 6.1-6.7 6.2-15.5 6.2-22.9 3.8-49.8 7.2-99.6 10.5-149.6 27.3 6.6 56.2 11.6 85 13.7-2.8 52.7-5.9 95.9-6.3 110.6-.5 17.1 36.8 10.1 37.3-3.9 1-35.2 1.7-70.3 2.7-105.5 45.9-.5 88.9-9.8 120.5-33.6 19.6-15.1-11-24.7-24.4-14.6zm-369.2-80.6c-10.9-13.7-19.4-28.8-24.4-45.3-10.8-30.3-6.2-68.1 25.7-72.6 23.1-4.7 37.5 27 30.3 60.8-3.6 19-19 44.2-31.6 57.1z"/><path class="empty" d="M472.6 322.7c-31.8 4.5-36.5 42.4-25.7 72.6 5 16.5 13.5 31.6 24.4 45.3 12.6-12.9 28-38.1 31.6-57.1 7.2-33.9-7.2-65.5-30.3-60.8z"/></g></svg>